<svg xmlns="http://www.w3.org/2000/svg" xmlns:xlink="http://www.w3.org/1999/xlink" width="500" zoomAndPan="magnify" viewBox="0 0 375 374.999991" height="500" preserveAspectRatio="xMidYMid meet" version="1.2"><defs><clipPath id="11b8e89cce"><path d="M 207 137 L 223 137 L 223 157 L 207 157 Z M 207 137 "/></clipPath><clipPath id="10af1b1a3b"><path d="M 137.710938 141.269531 L 230.761719 124.769531 L 237.570312 163.171875 L 144.519531 179.671875 Z M 137.710938 141.269531 "/></clipPath><clipPath id="ad1ef70255"><path d="M 137.710938 141.269531 L 230.761719 124.769531 L 237.570312 163.171875 L 144.519531 179.671875 Z M 137.710938 141.269531 "/></clipPath><clipPath id="73d286f84f"><path d="M 179 144 L 197 144 L 197 158 L 179 158 Z M 179 144 "/></clipPath><clipPath id="3741787425"><path d="M 137.710938 141.269531 L 230.761719 124.769531 L 237.570312 163.171875 L 144.519531 179.671875 Z M 137.710938 141.269531 "/></clipPath><clipPath id="fcff511c1c"><path d="M 137.710938 141.269531 L 230.761719 124.769531 L 237.570312 163.171875 L 144.519531 179.671875 Z M 137.710938 141.269531 "/></clipPath><clipPath id="3a1163c6e2"><path d="M 143 147 L 169 147 L 169 179 L 143 179 Z M 143 147 "/></clipPath><clipPath id="da1951f25f"><path d="M 137.710938 141.269531 L 230.761719 124.769531 L 237.570312 163.171875 L 144.519531 179.671875 Z M 137.710938 141.269531 "/></clipPath><clipPath id="48c8d7c514"><path d="M 137.710938 141.269531 L 230.761719 124.769531 L 237.570312 163.171875 L 144.519531 179.671875 Z M 137.710938 141.269531 "/></clipPath><clipPath id="631a7e15d1"><path d="M 166 138 L 181 138 L 181 153 L 166 153 Z M 166 138 "/></clipPath><clipPath id="41d210d759"><path d="M 137.710938 141.269531 L 230.761719 124.769531 L 237.570312 163.171875 L 144.519531 179.671875 Z M 137.710938 141.269531 "/></clipPath><clipPath id="93c14cf56c"><path d="M 137.710938 141.269531 L 230.761719 124.769531 L 237.570312 163.171875 L 144.519531 179.671875 Z M 137.710938 141.269531 "/></clipPath><clipPath id="dacf52b156"><path d="M 195 150 L 210 150 L 210 165 L 195 165 Z M 195 150 "/></clipPath><clipPath id="4483afaf78"><path d="M 137.710938 141.269531 L 230.761719 124.769531 L 237.570312 163.171875 L 144.519531 179.671875 Z M 137.710938 141.269531 "/></clipPath><clipPath id="9a0ff06748"><path d="M 137.710938 141.269531 L 230.761719 124.769531 L 237.570312 163.171875 L 144.519531 179.671875 Z M 137.710938 141.269531 "/></clipPath><clipPath id="332fa5a9ff"><path d="M 217 126 L 232 126 L 232 140 L 217 140 Z M 217 126 "/></clipPath><clipPath id="a6acc06ee5"><path d="M 137.710938 141.269531 L 230.761719 124.769531 L 237.570312 163.171875 L 144.519531 179.671875 Z M 137.710938 141.269531 "/></clipPath><clipPath id="08aaf28765"><path d="M 137.710938 141.269531 L 230.761719 124.769531 L 237.570312 163.171875 L 144.519531 179.671875 Z M 137.710938 141.269531 "/></clipPath><clipPath id="8f18597e19"><path d="M 220.519531 243 L 247 243 L 247 245 L 220.519531 245 Z M 134 243 L 211.3125 243 L 211.3125 245 L 134 245 Z M 134 243 "/></clipPath></defs><g id="5a8b1c0f12"><g clip-rule="nonzero" clip-path="url(#11b8e89cce)"><g clip-rule="nonzero" clip-path="url(#10af1b1a3b)"><g clip-rule="nonzero" clip-path="url(#ad1ef70255)"><path style=" stroke:none;fill-rule:nonzero;fill:#000000;fill-opacity:1;" d="M 220.039062 137.546875 C 215.925781 142.707031 211.445312 148.398438 207.332031 153.558594 C 207.335938 153.5625 207.339844 153.566406 207.34375 153.570312 C 207.402344 153.628906 207.464844 153.695312 207.519531 153.773438 C 207.582031 153.847656 207.632812 153.921875 207.679688 153.996094 C 208.183594 154.734375 208.546875 155.558594 208.761719 156.417969 C 213.222656 150.816406 218.054688 144.6875 222.511719 139.089844 C 221.59375 138.746094 220.746094 138.21875 220.039062 137.546875 Z M 220.039062 137.546875 "/></g></g></g><g clip-rule="nonzero" clip-path="url(#73d286f84f)"><g clip-rule="nonzero" clip-path="url(#3741787425)"><g clip-rule="nonzero" clip-path="url(#fcff511c1c)"><path style=" stroke:none;fill-rule:nonzero;fill:#000000;fill-opacity:1;" d="M 180.191406 144.640625 C 180.304688 145.714844 180.15625 146.792969 179.789062 147.789062 C 184.914062 150.910156 190.566406 154.398438 195.6875 157.519531 C 195.746094 156.507812 196.015625 155.515625 196.507812 154.625 C 191.242188 151.417969 185.453125 147.84375 180.191406 144.640625 Z M 180.191406 144.640625 "/></g></g></g><g clip-rule="nonzero" clip-path="url(#3a1163c6e2)"><g clip-rule="nonzero" clip-path="url(#da1951f25f)"><g clip-rule="nonzero" clip-path="url(#48c8d7c514)"><path style=" stroke:none;fill-rule:nonzero;fill:#000000;fill-opacity:1;" d="M 153.4375 165.238281 C 152.175781 164.59375 150.6875 164.320312 149.085938 164.515625 C 145.195312 164.992188 143.03125 168.972656 143.46875 172.558594 C 143.945312 176.449219 147.925781 178.617188 151.507812 178.175781 C 155.246094 177.71875 157.382812 174.035156 157.164062 170.570312 C 157.171875 170.433594 157.164062 170.292969 157.128906 170.136719 C 157.109375 169.980469 157.066406 169.847656 157.015625 169.722656 C 156.726562 168.71875 156.273438 167.824219 155.679688 167.078125 C 160.054688 161.585938 164.617188 155.828125 168.992188 150.339844 C 168.246094 149.65625 167.648438 148.808594 167.28125 147.835938 C 162.726562 153.550781 157.988281 159.527344 153.4375 165.238281 Z M 146.328125 172.050781 C 145.144531 166.976562 153.089844 165.59375 154.269531 170.640625 C 154.902344 175.808594 147.511719 177.121094 146.328125 172.050781 Z M 146.328125 172.050781 "/></g></g></g><g clip-rule="nonzero" clip-path="url(#631a7e15d1)"><g clip-rule="nonzero" clip-path="url(#41d210d759)"><g clip-rule="nonzero" clip-path="url(#93c14cf56c)"><path style=" stroke:none;fill-rule:nonzero;fill:#000000;fill-opacity:1;" d="M 180.191406 143.539062 C 180.175781 143.488281 180.15625 143.4375 180.136719 143.386719 C 180.121094 143.316406 180.101562 143.242188 180.074219 143.167969 C 178.816406 139.847656 175.207031 137.988281 171.773438 138.898438 C 168.28125 139.824219 166.234375 143.300781 166.757812 146.800781 C 166.824219 147.253906 166.941406 147.6875 167.09375 148.097656 C 167.464844 149.074219 168.058594 149.917969 168.808594 150.601562 C 170.460938 152.113281 172.851562 152.824219 175.121094 152.351562 C 177.488281 151.859375 179.273438 150.109375 180.054688 147.972656 C 180.421875 146.976562 180.566406 145.898438 180.453125 144.824219 C 180.410156 144.394531 180.324219 143.964844 180.191406 143.539062 Z M 174.617188 149.492188 C 172.289062 150.125 170.132812 148.539062 169.617188 146.292969 C 169.148438 144.269531 170.5625 142.433594 172.359375 141.734375 C 174.472656 140.914062 176.597656 142.375 177.390625 144.269531 C 177.976562 146.503906 176.984375 148.847656 174.617188 149.492188 Z M 174.617188 149.492188 "/></g></g></g><g clip-rule="nonzero" clip-path="url(#dacf52b156)"><g clip-rule="nonzero" clip-path="url(#4483afaf78)"><g clip-rule="nonzero" clip-path="url(#9a0ff06748)"><path style=" stroke:none;fill-rule:nonzero;fill:#000000;fill-opacity:1;" d="M 207.707031 153.507812 C 207.648438 153.433594 207.589844 153.367188 207.527344 153.308594 C 207.523438 153.304688 207.519531 153.300781 207.515625 153.296875 C 204.976562 150.511719 200.859375 150.203125 197.871094 152.53125 C 197.179688 153.070312 196.640625 153.71875 196.242188 154.4375 C 195.75 155.328125 195.480469 156.324219 195.425781 157.332031 C 195.320312 159.140625 195.894531 161.007812 197.085938 162.429688 C 199.449219 165.257812 203.5625 165.402344 206.464844 163.414062 C 208.878906 161.761719 209.617188 158.796875 208.949219 156.152344 C 208.734375 155.292969 208.367188 154.46875 207.863281 153.734375 C 207.820312 153.65625 207.769531 153.582031 207.707031 153.507812 Z M 204.820312 161.019531 C 203.300781 162.324219 200.902344 162.121094 199.496094 160.765625 C 197.867188 159.191406 197.914062 156.558594 199.496094 154.972656 C 201.226562 153.234375 203.980469 153.605469 205.492188 155.386719 C 206.832031 157.195312 206.496094 159.578125 204.820312 161.019531 Z M 204.820312 161.019531 "/></g></g></g><g clip-rule="nonzero" clip-path="url(#332fa5a9ff)"><g clip-rule="nonzero" clip-path="url(#a6acc06ee5)"><g clip-rule="nonzero" clip-path="url(#08aaf28765)"><path style=" stroke:none;fill-rule:nonzero;fill:#000000;fill-opacity:1;" d="M 231.523438 131.394531 C 230.785156 127.824219 227.277344 125.648438 223.78125 126.050781 C 223.703125 126.054688 223.625 126.0625 223.542969 126.082031 C 223.460938 126.09375 223.382812 126.113281 223.3125 126.132812 C 219.757812 126.980469 217.542969 130.171875 217.875 133.816406 C 218.023438 135.410156 218.769531 136.78125 219.851562 137.8125 C 220.558594 138.484375 221.410156 139.011719 222.328125 139.355469 C 223.667969 139.855469 225.15625 139.976562 226.566406 139.601562 C 230.148438 138.652344 232.257812 134.96875 231.523438 131.394531 Z M 225.980469 136.765625 C 223.523438 137.71875 221.085938 135.65625 220.738281 133.308594 C 220.425781 131.207031 222.085938 129.34375 224.050781 128.941406 C 226.121094 128.632812 228.117188 129.84375 228.664062 131.902344 C 229.226562 134.035156 227.945312 136.003906 225.980469 136.765625 Z M 225.980469 136.765625 "/></g></g></g><g style="fill:#000000;fill-opacity:1;"><g transform="translate(119.091705, 225.154716)"><path style="stroke:none" d="M 16.109375 -39.328125 C 19.378906 -39.328125 22.238281 -38.773438 24.6875 -37.671875 C 27.144531 -36.578125 29.191406 -35.09375 30.828125 -33.21875 C 32.460938 -31.351562 33.691406 -29.242188 34.515625 -26.890625 C 35.335938 -24.546875 35.75 -22.132812 35.75 -19.65625 C 35.75 -17.1875 35.335938 -14.773438 34.515625 -12.421875 C 33.691406 -10.078125 32.460938 -7.96875 30.828125 -6.09375 C 29.191406 -4.226562 27.144531 -2.742188 24.6875 -1.640625 C 22.238281 -0.546875 19.378906 0 16.109375 0 L 4.40625 0 L 4.40625 -39.328125 Z M 16.109375 -31.453125 L 12.265625 -31.453125 L 12.265625 -7.859375 L 16.109375 -7.859375 C 18.316406 -7.859375 20.195312 -8.28125 21.75 -9.125 C 23.3125 -9.96875 24.554688 -11.09375 25.484375 -12.5 C 26.421875 -13.914062 27.046875 -15.46875 27.359375 -17.15625 C 27.671875 -18.84375 27.671875 -20.519531 27.359375 -22.1875 C 27.046875 -23.851562 26.421875 -25.394531 25.484375 -26.8125 C 24.554688 -28.226562 23.3125 -29.351562 21.75 -30.1875 C 20.195312 -31.03125 18.316406 -31.453125 16.109375 -31.453125 Z M 16.109375 -31.453125 "/></g></g><g style="fill:#000000;fill-opacity:1;"><g transform="translate(157.808896, 225.154716)"><path style="stroke:none" d="M 0.875 0 L 17.4375 -40.75 L 18.265625 -40.75 L 34.8125 0 L 25.953125 0 L 24.359375 -4.234375 L 11.328125 -4.234375 L 9.796875 0 Z M 14.1875 -11.609375 L 21.453125 -11.609375 L 17.875 -21.828125 Z M 14.1875 -11.609375 "/></g></g><g style="fill:#000000;fill-opacity:1;"><g transform="translate(193.721289, 225.154716)"><path style="stroke:none" d="M 18.75 0 L 10.890625 0 L 10.890625 -31.453125 L 1.09375 -31.453125 L 1.09375 -39.265625 L 28.546875 -39.265625 L 28.546875 -31.453125 L 18.75 -31.453125 Z M 18.75 0 "/></g></g><g style="fill:#000000;fill-opacity:1;"><g transform="translate(223.804109, 225.154716)"><path style="stroke:none" d="M 0.875 0 L 17.4375 -40.75 L 18.265625 -40.75 L 34.8125 0 L 25.953125 0 L 24.359375 -4.234375 L 11.328125 -4.234375 L 9.796875 0 Z M 14.1875 -11.609375 L 21.453125 -11.609375 L 17.875 -21.828125 Z M 14.1875 -11.609375 "/></g></g><g clip-rule="nonzero" clip-path="url(#8f18597e19)"><path style=" stroke:none;fill-rule:nonzero;fill:#000000;fill-opacity:1;" d="M 134.125 243.363281 L 246.097656 243.363281 L 246.097656 244.113281 L 134.125 244.113281 Z M 134.125 243.363281 "/></g><g style="fill:#000000;fill-opacity:1;"><g transform="translate(134.126553, 242.613793)"><path style="stroke:none" d="M 7.828125 -2.734375 C 7.828125 -1.785156 7.515625 -1.054688 6.890625 -0.546875 C 6.273438 -0.046875 5.359375 0.203125 4.140625 0.203125 C 3.304688 0.203125 2.578125 0.0625 1.953125 -0.21875 C 1.335938 -0.5 0.835938 -0.945312 0.453125 -1.5625 L 1.9375 -2.703125 C 2.15625 -2.390625 2.359375 -2.15625 2.546875 -2 C 2.742188 -1.84375 2.976562 -1.722656 3.25 -1.640625 C 3.519531 -1.554688 3.832031 -1.515625 4.1875 -1.515625 C 4.707031 -1.515625 5.113281 -1.601562 5.40625 -1.78125 C 5.707031 -1.957031 5.859375 -2.234375 5.859375 -2.609375 C 5.859375 -2.816406 5.804688 -2.988281 5.703125 -3.125 C 5.597656 -3.269531 5.441406 -3.394531 5.234375 -3.5 C 5.023438 -3.601562 4.671875 -3.71875 4.171875 -3.84375 C 3.679688 -3.976562 3.21875 -4.113281 2.78125 -4.25 C 2.34375 -4.382812 1.960938 -4.554688 1.640625 -4.765625 C 1.328125 -4.984375 1.078125 -5.253906 0.890625 -5.578125 C 0.710938 -5.898438 0.625 -6.304688 0.625 -6.796875 C 0.625 -7.703125 0.925781 -8.40625 1.53125 -8.90625 C 2.144531 -9.40625 3.015625 -9.65625 4.140625 -9.65625 C 5.773438 -9.65625 6.929688 -9.097656 7.609375 -7.984375 L 6.140625 -6.828125 C 5.878906 -7.234375 5.585938 -7.519531 5.265625 -7.6875 C 4.941406 -7.863281 4.554688 -7.953125 4.109375 -7.953125 C 3.671875 -7.953125 3.3125 -7.867188 3.03125 -7.703125 C 2.75 -7.546875 2.609375 -7.296875 2.609375 -6.953125 C 2.609375 -6.640625 2.753906 -6.398438 3.046875 -6.234375 C 3.335938 -6.078125 3.84375 -5.914062 4.5625 -5.75 C 4.96875 -5.644531 5.363281 -5.53125 5.75 -5.40625 C 6.144531 -5.289062 6.492188 -5.125 6.796875 -4.90625 C 7.109375 -4.695312 7.359375 -4.421875 7.546875 -4.078125 C 7.734375 -3.734375 7.828125 -3.285156 7.828125 -2.734375 Z M 7.828125 -2.734375 "/></g></g><g style="fill:#000000;fill-opacity:1;"><g transform="translate(143.923233, 242.613793)"><path style="stroke:none" d="M 2.453125 -3.125 C 2.484375 -2.488281 2.632812 -2.03125 2.90625 -1.75 C 3.1875 -1.46875 3.625 -1.328125 4.21875 -1.328125 C 4.570312 -1.328125 4.878906 -1.367188 5.140625 -1.453125 C 5.398438 -1.546875 5.628906 -1.71875 5.828125 -1.96875 L 7.140625 -1.03125 C 6.847656 -0.613281 6.472656 -0.300781 6.015625 -0.09375 C 5.554688 0.113281 4.929688 0.21875 4.140625 0.21875 C 2.960938 0.21875 2.082031 -0.0859375 1.5 -0.703125 C 0.914062 -1.328125 0.625 -2.269531 0.625 -3.53125 C 0.625 -6.09375 1.773438 -7.375 4.078125 -7.375 C 5.097656 -7.375 5.875 -7.082031 6.40625 -6.5 C 6.945312 -5.925781 7.21875 -5.09375 7.21875 -4 L 7.21875 -3.125 Z M 5.46875 -4.34375 C 5.46875 -5.425781 4.988281 -5.96875 4.03125 -5.96875 C 3.71875 -5.96875 3.457031 -5.914062 3.25 -5.8125 C 3.050781 -5.707031 2.890625 -5.546875 2.765625 -5.328125 C 2.648438 -5.117188 2.5625 -4.789062 2.5 -4.34375 Z M 5.46875 -4.34375 "/></g></g><g style="fill:#000000;fill-opacity:1;"><g transform="translate(153.13235, 242.613793)"><path style="stroke:none" d="M 5.359375 0 L 3.453125 -2.96875 L 2.75 -2.234375 L 2.75 0 L 0.984375 0 L 0.984375 -10.171875 L 2.75 -10.171875 L 2.75 -4.359375 L 5.171875 -7.171875 L 7.21875 -7.171875 L 4.5 -4.15625 L 7.359375 0 Z M 5.359375 0 "/></g></g><g style="fill:#000000;fill-opacity:1;"><g transform="translate(162.047686, 242.613793)"><path style="stroke:none" d="M 2.453125 -3.125 C 2.484375 -2.488281 2.632812 -2.03125 2.90625 -1.75 C 3.1875 -1.46875 3.625 -1.328125 4.21875 -1.328125 C 4.570312 -1.328125 4.878906 -1.367188 5.140625 -1.453125 C 5.398438 -1.546875 5.628906 -1.71875 5.828125 -1.96875 L 7.140625 -1.03125 C 6.847656 -0.613281 6.472656 -0.300781 6.015625 -0.09375 C 5.554688 0.113281 4.929688 0.21875 4.140625 0.21875 C 2.960938 0.21875 2.082031 -0.0859375 1.5 -0.703125 C 0.914062 -1.328125 0.625 -2.269531 0.625 -3.53125 C 0.625 -6.09375 1.773438 -7.375 4.078125 -7.375 C 5.097656 -7.375 5.875 -7.082031 6.40625 -6.5 C 6.945312 -5.925781 7.21875 -5.09375 7.21875 -4 L 7.21875 -3.125 Z M 5.46875 -4.34375 C 5.46875 -5.425781 4.988281 -5.96875 4.03125 -5.96875 C 3.71875 -5.96875 3.457031 -5.914062 3.25 -5.8125 C 3.050781 -5.707031 2.890625 -5.546875 2.765625 -5.328125 C 2.648438 -5.117188 2.5625 -4.789062 2.5 -4.34375 Z M 5.46875 -4.34375 "/></g></g><g style="fill:#000000;fill-opacity:1;"><g transform="translate(171.256803, 242.613793)"><path style="stroke:none" d="M 0.984375 0 L 0.984375 -10.171875 L 2.75 -10.171875 L 2.75 0 Z M 0.984375 0 "/></g></g><g style="fill:#000000;fill-opacity:1;"><g transform="translate(176.40764, 242.613793)"><path style="stroke:none" d=""/></g></g><g style="fill:#000000;fill-opacity:1;"><g transform="translate(181.169046, 242.613793)"><path style="stroke:none" d="M 5.265625 0 L 0.703125 0 L 0.703125 -1.484375 L 2.015625 -1.484375 L 2.015625 -7.984375 L 0.703125 -7.984375 L 0.703125 -9.46875 L 5.265625 -9.46875 L 5.265625 -7.984375 L 3.953125 -7.984375 L 3.953125 -1.484375 L 5.265625 -1.484375 Z M 5.265625 0 "/></g></g><g style="fill:#000000;fill-opacity:1;"><g transform="translate(188.526658, 242.613793)"><path style="stroke:none" d="M 5.609375 0 L 5.609375 -3.953125 C 5.609375 -4.703125 5.539062 -5.203125 5.40625 -5.453125 C 5.269531 -5.703125 5.019531 -5.828125 4.65625 -5.828125 C 4.125 -5.828125 3.488281 -5.476562 2.75 -4.78125 L 2.75 0 L 0.984375 0 L 0.984375 -7.171875 L 2.75 -7.171875 L 2.75 -6.234375 C 3.125 -6.609375 3.523438 -6.890625 3.953125 -7.078125 C 4.378906 -7.273438 4.796875 -7.375 5.203125 -7.375 C 5.929688 -7.375 6.472656 -7.171875 6.828125 -6.765625 C 7.191406 -6.367188 7.375 -5.707031 7.375 -4.78125 L 7.375 0 Z M 5.609375 0 "/></g></g><g style="fill:#000000;fill-opacity:1;"><g transform="translate(198.241352, 242.613793)"><path style="stroke:none" d="M 6.46875 -2.046875 C 6.46875 -1.566406 6.347656 -1.160156 6.109375 -0.828125 C 5.867188 -0.492188 5.53125 -0.234375 5.09375 -0.046875 C 4.65625 0.128906 4.148438 0.21875 3.578125 0.21875 C 2.078125 0.21875 1.054688 -0.203125 0.515625 -1.046875 L 1.828125 -1.96875 C 2.046875 -1.675781 2.296875 -1.476562 2.578125 -1.375 C 2.859375 -1.28125 3.15625 -1.234375 3.46875 -1.234375 C 4.3125 -1.234375 4.734375 -1.476562 4.734375 -1.96875 C 4.734375 -2.175781 4.613281 -2.335938 4.375 -2.453125 C 4.132812 -2.566406 3.765625 -2.6875 3.265625 -2.8125 C 2.304688 -3.019531 1.632812 -3.316406 1.25 -3.703125 C 0.863281 -4.085938 0.671875 -4.585938 0.671875 -5.203125 C 0.671875 -5.828125 0.910156 -6.34375 1.390625 -6.75 C 1.878906 -7.164062 2.597656 -7.375 3.546875 -7.375 C 4.179688 -7.375 4.742188 -7.269531 5.234375 -7.0625 C 5.722656 -6.863281 6.101562 -6.554688 6.375 -6.140625 L 5.046875 -5.203125 C 4.734375 -5.691406 4.222656 -5.9375 3.515625 -5.9375 C 3.148438 -5.9375 2.875 -5.875 2.6875 -5.75 C 2.5 -5.625 2.40625 -5.460938 2.40625 -5.265625 C 2.40625 -5.078125 2.488281 -4.925781 2.65625 -4.8125 C 2.820312 -4.707031 3.15625 -4.59375 3.65625 -4.46875 C 4.46875 -4.257812 5.046875 -4.054688 5.390625 -3.859375 C 5.742188 -3.660156 6.007812 -3.414062 6.1875 -3.125 C 6.375 -2.832031 6.46875 -2.472656 6.46875 -2.046875 Z M 6.46875 -2.046875 "/></g></g><g style="fill:#000000;fill-opacity:1;"><g transform="translate(206.651111, 242.613793)"><path style="stroke:none" d="M 2.859375 -9.125 C 2.859375 -8.789062 2.773438 -8.554688 2.609375 -8.421875 C 2.441406 -8.296875 2.191406 -8.234375 1.859375 -8.234375 C 1.484375 -8.234375 1.226562 -8.3125 1.09375 -8.46875 C 0.957031 -8.625 0.890625 -8.84375 0.890625 -9.125 C 0.890625 -9.445312 0.960938 -9.675781 1.109375 -9.8125 C 1.253906 -9.945312 1.503906 -10.015625 1.859375 -10.015625 C 2.210938 -10.015625 2.46875 -9.945312 2.625 -9.8125 C 2.78125 -9.6875 2.859375 -9.457031 2.859375 -9.125 Z M 0.984375 0 L 0.984375 -7.171875 L 2.75 -7.171875 L 2.75 0 Z M 0.984375 0 "/></g></g><g style="fill:#000000;fill-opacity:1;"><g transform="translate(211.801947, 242.613793)"><path style="stroke:none" d="M 7.328125 -0.140625 C 7.328125 0.816406 7.03125 1.53125 6.4375 2 C 5.851562 2.46875 4.910156 2.703125 3.609375 2.703125 C 2.535156 2.703125 1.597656 2.492188 0.796875 2.078125 L 1.3125 0.640625 C 2.0625 0.984375 2.828125 1.15625 3.609375 1.15625 C 4.335938 1.15625 4.84375 1.050781 5.125 0.84375 C 5.414062 0.632812 5.5625 0.28125 5.5625 -0.21875 L 5.5625 -0.796875 C 4.976562 -0.265625 4.273438 0 3.453125 0 C 2.578125 0 1.882812 -0.3125 1.375 -0.9375 C 0.875 -1.570312 0.625 -2.476562 0.625 -3.65625 C 0.625 -4.394531 0.738281 -5.046875 0.96875 -5.609375 C 1.207031 -6.171875 1.550781 -6.601562 2 -6.90625 C 2.457031 -7.21875 3.007812 -7.375 3.65625 -7.375 C 4.03125 -7.375 4.40625 -7.289062 4.78125 -7.125 C 5.164062 -6.957031 5.488281 -6.75 5.75 -6.5 L 5.96875 -7.171875 L 7.328125 -7.171875 Z M 5.5625 -5.1875 C 5.070312 -5.613281 4.546875 -5.828125 3.984375 -5.828125 C 3.554688 -5.828125 3.191406 -5.628906 2.890625 -5.234375 C 2.597656 -4.847656 2.453125 -4.332031 2.453125 -3.6875 C 2.453125 -2.957031 2.582031 -2.414062 2.84375 -2.0625 C 3.101562 -1.71875 3.441406 -1.546875 3.859375 -1.546875 C 4.441406 -1.546875 5.007812 -1.78125 5.5625 -2.25 Z M 5.5625 -5.1875 "/></g></g><g style="fill:#000000;fill-opacity:1;"><g transform="translate(221.516642, 242.613793)"><path style="stroke:none" d="M 5.609375 0 L 5.609375 -3.953125 C 5.609375 -4.710938 5.535156 -5.210938 5.390625 -5.453125 C 5.253906 -5.703125 5.007812 -5.828125 4.65625 -5.828125 C 4.125 -5.828125 3.488281 -5.476562 2.75 -4.78125 L 2.75 0 L 0.984375 0 L 0.984375 -10.171875 L 2.75 -10.171875 L 2.75 -6.234375 C 3.125 -6.609375 3.523438 -6.890625 3.953125 -7.078125 C 4.378906 -7.273438 4.796875 -7.375 5.203125 -7.375 C 6.003906 -7.375 6.566406 -7.144531 6.890625 -6.6875 C 7.210938 -6.238281 7.375 -5.601562 7.375 -4.78125 L 7.375 0 Z M 5.609375 0 "/></g></g><g style="fill:#000000;fill-opacity:1;"><g transform="translate(231.231336, 242.613793)"><path style="stroke:none" d="M 4.953125 0 C 4.484375 0.144531 3.984375 0.21875 3.453125 0.21875 C 2.628906 0.21875 2.035156 0.03125 1.671875 -0.34375 C 1.304688 -0.71875 1.125 -1.328125 1.125 -2.171875 L 1.125 -5.765625 L 0.21875 -5.765625 L 0.21875 -7.171875 L 1.125 -7.171875 L 1.125 -9.171875 L 2.890625 -9.171875 L 2.890625 -7.171875 L 4.546875 -7.171875 L 4.546875 -5.765625 L 2.890625 -5.765625 L 2.890625 -2.390625 C 2.890625 -1.941406 2.957031 -1.640625 3.09375 -1.484375 C 3.226562 -1.328125 3.425781 -1.25 3.6875 -1.25 C 4.007812 -1.25 4.332031 -1.3125 4.65625 -1.4375 Z M 4.953125 0 "/></g></g><g style="fill:#000000;fill-opacity:1;"><g transform="translate(237.680276, 242.613793)"><path style="stroke:none" d="M 6.46875 -2.046875 C 6.46875 -1.566406 6.347656 -1.160156 6.109375 -0.828125 C 5.867188 -0.492188 5.53125 -0.234375 5.09375 -0.046875 C 4.65625 0.128906 4.148438 0.21875 3.578125 0.21875 C 2.078125 0.21875 1.054688 -0.203125 0.515625 -1.046875 L 1.828125 -1.96875 C 2.046875 -1.675781 2.296875 -1.476562 2.578125 -1.375 C 2.859375 -1.28125 3.15625 -1.234375 3.46875 -1.234375 C 4.3125 -1.234375 4.734375 -1.476562 4.734375 -1.96875 C 4.734375 -2.175781 4.613281 -2.335938 4.375 -2.453125 C 4.132812 -2.566406 3.765625 -2.6875 3.265625 -2.8125 C 2.304688 -3.019531 1.632812 -3.316406 1.25 -3.703125 C 0.863281 -4.085938 0.671875 -4.585938 0.671875 -5.203125 C 0.671875 -5.828125 0.910156 -6.34375 1.390625 -6.75 C 1.878906 -7.164062 2.597656 -7.375 3.546875 -7.375 C 4.179688 -7.375 4.742188 -7.269531 5.234375 -7.0625 C 5.722656 -6.863281 6.101562 -6.554688 6.375 -6.140625 L 5.046875 -5.203125 C 4.734375 -5.691406 4.222656 -5.9375 3.515625 -5.9375 C 3.148438 -5.9375 2.875 -5.875 2.6875 -5.75 C 2.5 -5.625 2.40625 -5.460938 2.40625 -5.265625 C 2.40625 -5.078125 2.488281 -4.925781 2.65625 -4.8125 C 2.820312 -4.707031 3.15625 -4.59375 3.65625 -4.46875 C 4.46875 -4.257812 5.046875 -4.054688 5.390625 -3.859375 C 5.742188 -3.660156 6.007812 -3.414062 6.1875 -3.125 C 6.375 -2.832031 6.46875 -2.472656 6.46875 -2.046875 Z M 6.46875 -2.046875 "/></g></g></g></svg>